# xmcd
#
# Track frame offsets: 
#        150
#        15368
#        29682
#        48117
#        67590
#        83883
#        100219
#        112888
#        129963
#        145038
#        160074
#        176590
#        192607
#        209016
#        229739
#        247664
#        264323
#        281441
#
# Disc length: 3973 seconds
#
# Revision: 2
# Processed by: cddbd v1.5.2PL0 Copyright (c) Steve Scherf et al.
# Submitted via: ExactAudioCopy v1.1
#
DISCID=e50f8312
DTITLE=Балаган лимитед - Best
DYEAR=2003
DGENRE=Pop
TTITLE0=Серёжа
TTITLE1=Проводы
TTITLE2=Подмосковные вечера
TTITLE3=Чтоб тебя
TTITLE4=Что тебе надо?
TTITLE5=Колечько
TTITLE6=Снег снежок
TTITLE7=Наивная
TTITLE8=Тик так ходики
TTITLE9=Грозьдья рябины
TTITLE10=Пчёлочка злотая
TTITLE11=Потолок ледяной
TTITLE12=По вечерам
TTITLE13=Чють не поверила
TTITLE14=Зима
TTITLE15=Негуби любовь
TTITLE16=Женский монастырь
TTITLE17=Ивушки
EXTD=
EXTT0=
EXTT1=
EXTT2=
EXTT3=
EXTT4=
EXTT5=
EXTT6=
EXTT7=
EXTT8=
EXTT9=
EXTT10=
EXTT11=
EXTT12=
EXTT13=
EXTT14=
EXTT15=
EXTT16=
EXTT17=
PLAYORDER=
